<?xml version="1.0" encoding="UTF-8"?>
<svg width="150px" height="150px" viewBox="0 0 150 150" version="1.1" xmlns="http://www.w3.org/2000/svg" xmlns:xlink="http://www.w3.org/1999/xlink">
    <!-- Generator: Sketch 55.2 (78181) - https://sketchapp.com -->
    <title>Colorless</title>
    <desc>Created with Sketch.</desc>
    <g id="Colorless" stroke="none" stroke-width="1" fill="none" fill-rule="evenodd">
        <path d="M144.4106,75.7383 C144.4106,113.8613 113.5046,144.7673 75.3816,144.7673 C37.2566,144.7673 6.3516,113.8613 6.3516,75.7383 C6.3516,37.6133 37.2566,6.7093 75.3816,6.7093 C113.5046,6.7093 144.4106,37.6133 144.4106,75.7383" id="Fill-188" fill="#E5D6D0"></path>
        <path d="M117.8179,98.9844 C117.6379,98.7874 114.9689,96.2594 114.5669,95.9274 C111.7449,93.3184 109.0709,90.5414 106.5369,87.6074 C104.0059,84.6704 101.6139,81.6664 99.3559,78.5894 C98.7979,77.6814 98.5139,76.7324 98.4969,75.7404 C98.5129,74.7484 98.7979,73.7964 99.3559,72.8844 C101.6119,69.8124 104.0059,66.8084 106.5379,63.8734 C109.0719,60.9354 111.7449,58.1604 114.5669,55.5484 C114.9689,55.2184 117.6379,52.6914 117.8179,52.4924 C118.4749,51.9314 120.9029,49.7504 121.9439,48.8574 C121.9399,48.8594 121.9359,48.8614 121.9319,48.8614 C121.9349,48.8594 121.9379,48.8554 121.9419,48.8534 C120.6489,49.3104 117.5439,50.3204 116.7309,50.6094 C116.4679,50.6664 112.9449,51.7144 112.4589,51.8944 C108.7859,53.0354 105.0459,53.9634 101.2359,54.6894 C97.4259,55.4124 93.6279,55.9824 89.8389,56.4004 C88.7699,56.4274 87.8029,56.1994 86.9359,55.7164 C86.0869,55.2054 85.4059,54.4844 84.8959,53.5484 C83.3629,50.0564 81.9599,46.4824 80.6799,42.8224 C79.4049,39.1604 78.3389,35.4554 77.4889,31.7054 C77.4029,31.1934 76.5479,27.6174 76.4669,27.3654 C76.3099,26.5134 75.6329,23.3204 75.3799,21.9724 L75.3799,21.9764 L75.3799,21.9724 C75.1279,23.3204 74.4499,26.5154 74.2939,27.3654 C74.2119,27.6194 73.3569,31.1954 73.2699,31.7054 C72.4219,35.4554 71.3559,39.1624 70.0789,42.8224 C68.7999,46.4824 67.3949,50.0584 65.8619,53.5484 C65.3539,54.4864 64.6719,55.2094 63.8199,55.7204 C63.6019,55.8414 63.3799,55.9454 63.1509,56.0334 C62.4639,56.2984 61.7219,56.4214 60.9239,56.4004 C57.1339,55.9824 53.3359,55.4124 49.5259,54.6894 C45.7169,53.9634 41.9759,53.0354 38.3039,51.8944 C37.8179,51.7144 34.2949,50.6664 34.0319,50.6094 C33.2189,50.3204 30.1139,49.3104 28.8199,48.8534 C28.8219,48.8554 28.8239,48.8574 28.8249,48.8574 C28.8229,48.8574 28.8199,48.8574 28.8189,48.8554 C29.8599,49.7484 32.2869,51.9294 32.9439,52.4904 C33.1249,52.6894 35.7949,55.2164 36.1939,55.5464 C39.0159,58.1584 41.6909,60.9314 44.2229,63.8714 C46.7549,66.8064 49.1489,69.8104 51.4069,72.8824 C51.9639,73.7934 52.2469,74.7424 52.2659,75.7344 C52.2509,76.7264 51.9639,77.6774 51.4069,78.5884 C49.1489,81.6624 46.7549,84.6664 44.2229,87.6034 C41.6909,90.5394 39.0179,93.3144 36.1939,95.9254 C35.7939,96.2574 33.1249,98.7834 32.9459,98.9824 C32.2869,99.5434 29.8599,101.7264 28.8189,102.6194 C28.8219,102.6194 28.8269,102.6174 28.8299,102.6154 C28.8269,102.6194 28.8229,102.6214 28.8199,102.6234 C30.1139,102.1664 33.2189,101.1564 34.0319,100.8674 C34.2949,100.8104 37.8179,99.7614 38.3039,99.5804 C41.9759,98.4414 45.7169,97.5134 49.5259,96.7894 C53.3359,96.0644 57.1339,95.4944 60.9239,95.0744 C61.9919,95.0484 62.9599,95.2774 63.8269,95.7594 C64.6749,96.2694 65.3559,96.9904 65.8649,97.9274 C67.3979,101.4204 68.8029,104.9944 70.0809,108.6544 C71.3579,112.3164 72.4229,116.0214 73.2729,119.7694 C73.3599,120.2814 74.2139,123.8594 74.2959,124.1134 C74.4519,124.9634 75.1299,128.1544 75.3799,129.5044 L75.3809,129.4964 C75.3819,129.4984 75.3819,129.5004 75.3829,129.5024 C75.6349,128.1524 76.3129,124.9614 76.4679,124.1114 C76.5509,123.8574 77.4059,120.2814 77.4909,119.7674 C78.3399,116.0174 79.4089,112.3164 80.6829,108.6524 C81.9619,104.9924 83.3659,101.4184 84.8989,97.9254 C85.1919,97.3864 85.5469,96.9294 85.9539,96.5314 C86.2529,96.2384 86.5759,95.9764 86.9359,95.7594 C87.8029,95.2774 88.7699,95.0484 89.8389,95.0744 C93.6279,95.4944 97.4259,96.0644 101.2359,96.7894 C105.0459,97.5134 108.7859,98.4414 112.4589,99.5804 C112.9449,99.7614 116.4679,100.8104 116.7309,100.8674 C117.5439,101.1564 120.6489,102.1664 121.9419,102.6234 C121.9399,102.6234 121.9379,102.6214 121.9359,102.6194 C121.9379,102.6194 121.9419,102.6214 121.9429,102.6214 C120.9029,101.7284 118.4749,99.5454 117.8179,98.9844" id="Fill-193" fill="#000000"></path>
    </g>
</svg>