<?xml version="1.0" encoding="UTF-8"?>
<svg width="150px" height="150px" viewBox="0 0 150 150" version="1.1" xmlns="http://www.w3.org/2000/svg" xmlns:xlink="http://www.w3.org/1999/xlink">
    <!-- Generator: Sketch 55.2 (78181) - https://sketchapp.com -->
    <title>Darkness</title>
    <desc>Created with Sketch.</desc>
    <g id="Darkness" stroke="none" stroke-width="1" fill="none" fill-rule="evenodd">
        <path d="M144.0586,75.9707 C144.0586,114.0937 113.1536,144.9997 75.0296,144.9997 C36.9056,144.9997 5.9996,114.0937 5.9996,75.9707 C5.9996,37.8457 36.9056,6.9417 75.0296,6.9417 C113.1536,6.9417 144.0586,37.8457 144.0586,75.9707" id="Fill-133" fill="#767775"></path>
        <path d="M128.0288,75.8145 C128.0288,80.7055 127.4408,85.3755 126.2618,89.8125 C125.0838,94.2505 123.3168,98.4645 120.9628,102.4515 C118.6978,106.5275 116.0698,110.1505 113.0808,113.3205 C109.9998,116.4925 106.6038,119.2555 102.8878,121.6115 C100.8038,122.8785 98.6748,124.0115 96.5018,125.0095 C94.3248,126.0055 92.0618,126.8635 89.7058,127.5895 C87.3518,128.3145 84.9508,128.8595 82.5038,129.2225 C80.0568,129.5825 77.5668,129.7655 75.0288,129.7655 C72.4928,129.7655 69.9548,129.5825 67.4178,129.2225 C64.9728,128.8595 62.6158,128.3145 60.3528,127.5895 C57.9068,126.8635 55.5938,126.0055 53.4208,125.0095 C51.2468,124.0115 49.1168,122.8785 47.0348,121.6115 C43.3198,119.2555 39.9208,116.4925 36.8418,113.3205 C33.8538,110.1505 31.2248,106.5275 28.9598,102.4515 C26.6038,98.4645 24.8828,94.2505 23.7968,89.8125 C22.6178,85.3755 22.0298,80.7055 22.0298,75.8145 C22.0298,69.5625 22.9808,63.6735 24.8828,58.1485 C26.7858,52.6215 29.6388,47.4105 33.4438,42.5175 C37.2508,37.8105 41.5088,33.8695 46.2188,30.6955 C50.9308,27.6155 56.1388,25.3495 61.8478,23.9025 C58.3138,26.0765 55.4598,29.0195 53.2858,32.7345 C51.1108,36.5395 50.0248,40.6645 50.0248,45.1015 C50.0248,52.0785 52.4698,58.0115 57.3618,62.9045 C62.2548,67.7945 68.1438,70.2425 75.0288,70.2425 C81.9128,70.2425 87.8038,67.7945 92.6958,62.9045 C97.5878,58.0115 100.0328,52.0785 100.0328,45.1015 C100.0328,40.6645 98.9908,36.5855 96.9078,32.8715 C94.7338,29.1565 91.8798,26.1665 88.3468,23.9025 C93.9638,25.3495 99.1278,27.6605 103.8398,30.8325 C108.5488,33.9145 112.8088,37.8105 116.6128,42.5175 C120.4198,47.4105 123.2718,52.6215 125.1758,58.1485 C127.0778,63.6735 128.0288,69.5625 128.0288,75.8145" id="Fill-138" fill="#000000"></path>
    </g>
</svg>