<?xml version="1.0" encoding="UTF-8"?>
<svg width="150px" height="150px" viewBox="0 0 150 150" version="1.1" xmlns="http://www.w3.org/2000/svg" xmlns:xlink="http://www.w3.org/1999/xlink">
    <!-- Generator: Sketch 55.2 (78181) - https://sketchapp.com -->
    <title>Dragon</title>
    <desc>Created with Sketch.</desc>
    <g id="Dragon" stroke="none" stroke-width="1" fill="none" fill-rule="evenodd">
        <path d="M144.5278,75.9707 C144.5278,114.0937 113.6218,144.9997 75.4988,144.9997 C37.3738,144.9997 6.4688,114.0937 6.4688,75.9707 C6.4688,37.8457 37.3738,6.9417 75.4988,6.9417 C113.6218,6.9417 144.5278,37.8457 144.5278,75.9707" id="Fill-166" fill="#C6A114"></path>
        <path d="M100.8335,99.2969 C100.1545,98.6209 99.1415,97.5679 97.7905,96.1309 C96.7785,95.2029 95.6785,94.1879 94.4965,93.0879 C93.3125,91.9939 92.0905,90.8109 90.8225,89.5409 C90.1455,88.8669 89.4305,88.1949 88.6685,87.5159 C87.9925,86.8379 87.3185,86.2089 86.6435,85.6149 C85.9655,84.9399 85.2905,84.2679 84.6145,83.5879 C84.0225,82.9979 83.4315,82.4059 82.8425,81.8129 C82.7575,81.7309 82.6695,81.6899 82.5885,81.6899 C82.5025,81.6059 82.4165,81.5199 82.3345,81.4339 C82.2505,81.2639 82.1635,81.1799 82.0825,81.1799 C81.9965,81.0959 81.9095,81.0099 81.8275,80.9279 C82.3345,83.1229 82.6305,84.3909 82.7155,84.7269 L82.8425,85.3609 C83.1785,86.7989 83.5575,88.2769 83.9805,89.7989 C84.3185,91.3179 84.6565,92.8359 84.9945,94.3579 C87.6115,95.1169 89.1315,95.5799 89.5575,95.7519 L90.1895,95.8769 C91.9635,96.3829 93.7385,96.9339 95.5105,97.5259 C97.2845,98.1129 99.0595,98.7089 100.8335,99.2969 M122.7505,106.6489 C122.4115,107.4079 122.0745,108.1659 121.7365,108.9299 C121.3145,109.6079 120.8935,110.2789 120.4695,110.9529 C119.9635,111.7129 119.4555,112.4299 118.9495,113.1079 C118.4415,113.8669 117.9355,114.5859 117.4295,115.2639 C116.0785,116.7829 114.6005,118.1759 112.9945,119.4419 C111.4755,120.6249 109.7855,121.6819 107.9265,122.6099 C106.1525,123.5409 104.3375,124.2989 102.4795,124.8909 C100.5365,125.4809 98.5515,125.9469 96.5255,126.2829 C95.5945,126.3669 94.6255,126.4529 93.6115,126.5369 C92.5975,126.6209 91.5395,126.6659 90.4415,126.6659 C87.5725,126.6659 84.6565,126.3669 81.6995,125.7769 C78.6605,125.1879 75.5345,124.3399 72.3265,123.2419 C68.0185,121.6389 63.8815,119.5259 59.9105,116.9059 C55.9395,114.2909 52.0985,111.2049 48.3805,107.6599 C46.4365,105.7169 44.6215,103.7329 42.9305,101.7049 C41.2405,99.5979 39.6395,97.4839 38.1165,95.3689 C36.6825,93.0879 35.3755,90.8519 34.1895,88.6579 C33.0055,86.3769 31.9525,84.0939 31.0215,81.8129 C29.6725,78.2679 28.6155,74.6779 27.8555,71.0449 C27.1785,67.4979 26.8445,63.9939 26.8445,60.5269 L26.8445,58.5019 C26.9245,57.8279 26.9685,57.1929 26.9685,56.6019 C27.3045,52.3789 28.1915,48.4939 29.6305,44.9449 C30.9795,41.4839 32.9245,38.2769 35.4575,35.3169 C36.8095,33.7969 38.2445,32.4019 39.7665,31.1369 C41.2855,29.9529 42.9305,28.9009 44.7055,27.9689 C46.4805,27.0389 48.3375,26.2789 50.2805,25.6899 C52.1375,25.0999 54.0805,24.6309 56.1105,24.2929 C57.1215,24.1249 58.1375,23.9999 59.1505,23.9159 L62.1895,23.9159 C65.0605,23.9159 67.9735,24.1679 70.9335,24.6759 C73.8895,25.2679 76.8865,26.1109 79.9285,27.2089 C84.2345,28.7309 88.3315,30.7129 92.2175,33.1639 C96.1875,35.6949 100.0295,38.6949 103.7465,42.1599 C101.0415,40.1309 98.2985,38.4419 95.5105,37.0919 C92.6385,35.6539 89.7275,34.5999 86.7685,33.9259 C83.8125,33.1639 80.9395,32.7399 78.1535,32.6559 C75.4495,32.5759 72.7875,32.7829 70.1715,33.2909 C68.8205,33.6289 67.5115,34.0099 66.2445,34.4299 C64.8935,34.8519 63.6255,35.4009 62.4435,36.0759 C61.2585,36.6679 60.1195,37.3889 59.0215,38.2329 C58.0095,38.9919 57.0785,39.8789 56.2355,40.8909 C54.2905,43.0019 52.8145,45.3689 51.8015,47.9859 C50.7035,50.6919 50.1095,53.6489 50.0275,56.8559 C49.9435,60.0669 50.3235,63.1899 51.1675,66.2309 C52.0095,69.2719 53.3635,72.2699 55.2215,75.2269 C56.2355,76.8299 57.4165,78.3929 58.7705,79.9119 C60.0355,81.3519 61.4735,82.7459 63.0765,84.0939 C64.5965,85.5329 66.2875,86.8379 68.1465,88.0219 C70.0025,89.2069 72.0275,90.2599 74.2255,91.1899 C73.4675,87.9789 73.0415,86.0779 72.9615,85.4879 L72.7055,84.7269 C72.1975,82.5309 71.6475,80.1659 71.0595,77.6349 C70.3815,75.1839 69.7075,72.5669 69.0315,69.7769 C68.6935,68.2579 68.3555,66.7359 68.0185,65.2189 C67.5945,63.7789 67.2135,62.3029 66.8775,60.7809 C66.5395,59.3459 66.1995,57.9529 65.8635,56.6019 C65.6115,55.1659 65.3145,53.8589 64.9775,52.6739 C64.8935,52.4199 64.8515,52.2109 64.8515,52.0409 C64.7665,51.8729 64.7255,51.7459 64.7255,51.6639 C64.6395,51.4079 64.5965,51.1969 64.5965,51.0289 C64.5135,50.8589 64.4285,50.7309 64.3445,50.6489 C65.1045,51.1539 65.5255,51.4919 65.6115,51.6639 L65.7385,51.7869 C66.1615,52.2109 66.6665,52.7169 67.2575,53.3069 C67.8465,53.9009 68.5245,54.5309 69.2855,55.2089 C70.7235,56.5589 72.3675,58.1229 74.2255,59.8969 C76.0825,61.7539 78.1975,63.7789 80.5625,65.9769 C82.8425,68.1739 85.2035,70.4569 87.6555,72.8199 C90.1045,75.1839 92.5975,77.5899 95.1315,80.0389 C97.3285,82.1519 99.4815,84.2209 101.5925,86.2499 C103.7055,88.3609 105.8585,90.4279 108.0535,92.4549 C110.1645,94.4839 112.1915,96.4299 114.1355,98.2869 C116.0785,100.1429 117.9355,101.9159 119.7105,103.6059 C120.0465,103.8599 120.2995,104.1149 120.4695,104.3669 C120.7235,104.7009 120.9775,104.9999 121.2305,105.2539 C121.4815,105.4219 121.7365,105.6309 121.9895,105.8889 C122.2425,106.1389 122.4985,106.3909 122.7505,106.6489" id="Fill-171" fill="#000000"></path>
    </g>
</svg>