<?xml version="1.0" encoding="UTF-8"?>
<svg width="150px" height="150px" viewBox="0 0 150 150" version="1.1" xmlns="http://www.w3.org/2000/svg" xmlns:xlink="http://www.w3.org/1999/xlink">
    <!-- Generator: Sketch 55.2 (78181) - https://sketchapp.com -->
    <title>Fairy</title>
    <desc>Created with Sketch.</desc>
    <g id="Fairy" stroke="none" stroke-width="1" fill="none" fill-rule="evenodd">
        <path d="M144.645,75.9707 C144.645,114.0937 113.739,144.9997 75.616,144.9997 C37.491,144.9997 6.586,114.0937 6.586,75.9707 C6.586,37.8457 37.491,6.9417 75.616,6.9417 C113.739,6.9417 144.645,37.8457 144.645,75.9707" id="Fill-177" fill="#E03A83"></path>
        <path d="M128.2163,93.2852 C126.3853,98.5942 123.8203,103.3572 120.5243,107.5662 C117.2283,111.7772 113.2003,115.3942 108.4383,118.4162 C103.6773,121.4372 98.8243,124.0472 93.8823,126.2462 C88.8453,128.4432 83.6723,130.2262 78.3623,131.6012 C78.2703,131.4162 78.2253,131.2772 78.2253,131.1892 L78.2253,130.7772 C78.2253,128.6682 78.4063,126.5662 78.7743,124.4612 C79.0493,122.4472 79.4593,120.4312 80.0093,118.4162 C80.6493,116.3082 81.4283,114.2972 82.3423,112.3732 C83.3523,110.3612 84.4493,108.3902 85.6413,106.4692 C86.2823,105.4612 86.9683,104.5002 87.6983,103.5842 C88.3403,102.6722 89.0743,101.7542 89.8993,100.8382 C90.6293,99.9242 91.4083,99.0532 92.2333,98.2282 C93.1493,97.4062 94.0633,96.6722 94.9783,96.0312 C96.0783,95.2972 97.1293,94.5662 98.1393,93.8322 C99.2373,93.1952 100.3353,92.5512 101.4353,91.9102 C102.5323,91.2712 103.5863,90.5862 104.5943,89.8492 C105.6903,89.1192 106.7443,88.3402 107.7503,87.5152 C109.4913,86.1422 111.0453,84.6802 112.4223,83.1212 C113.7033,81.5642 114.8483,79.8732 115.8563,78.0392 C116.7703,76.3012 117.5493,74.4222 118.1903,72.4062 C118.8303,70.4842 119.2883,68.4262 119.5633,66.2262 C119.8383,63.3922 119.7913,60.6442 119.4263,57.9882 C119.1513,55.3342 118.5093,52.7222 117.5043,50.1602 C116.4973,47.5992 115.3973,45.0802 114.2073,42.6072 C113.1083,40.0432 111.9633,37.5232 110.7743,35.0512 C113.7953,37.0662 116.4513,39.4002 118.7383,42.0562 C121.0283,44.6192 122.9983,47.5022 124.6453,50.7072 C126.2923,54.0062 127.6643,57.3012 128.7643,60.5972 C129.7713,63.9842 130.4593,67.4162 130.8253,70.8982 C130.9163,71.8142 130.9613,72.7322 130.9613,73.6462 C131.0533,74.5582 131.0983,75.4782 131.0983,76.3902 C131.0983,77.3982 131.0533,78.4062 130.9613,79.4122 C130.9613,80.3282 130.9163,81.3342 130.8253,82.4352 C130.5493,84.2672 130.2293,86.0972 129.8633,87.9282 C129.4043,89.7602 128.8573,91.5472 128.2163,93.2852 M84.4043,65.4022 C83.4873,66.8692 82.7103,68.4262 82.0703,70.0742 C81.4283,71.7222 80.9253,73.5082 80.5593,75.4302 C80.1023,77.2642 79.6433,79.0942 79.1863,80.9242 C78.8193,82.8462 78.4533,84.8162 78.0873,86.8282 C77.9033,87.4722 77.7653,88.1132 77.6733,88.7502 C77.5823,89.4842 77.4903,90.1722 77.4013,90.8102 C77.3103,91.4552 77.1703,92.0962 76.9873,92.7342 C76.8973,93.3772 76.7603,94.0622 76.5773,94.7952 L76.5773,95.0702 C76.4853,95.2542 76.3933,95.3462 76.3013,95.3462 C76.3013,95.4372 76.2563,95.4822 76.1623,95.4822 L75.8893,95.4822 L75.4773,95.4822 C75.3863,95.4822 75.2933,95.4372 75.2023,95.3462 C75.1123,95.3462 75.0203,95.2542 74.9283,95.0702 L74.9283,94.7952 C74.7443,94.0622 74.6083,93.3772 74.5163,92.7342 C74.3333,92.0962 74.1973,91.4552 74.1043,90.8102 C74.0123,90.1722 73.9203,89.4842 73.8303,88.7502 C73.6473,88.1132 73.4633,87.4722 73.2793,86.8282 C73.0063,84.8162 72.6843,82.8462 72.3203,80.9242 C71.9513,79.0942 71.4963,77.2642 70.9453,75.4302 C70.5803,73.5972 70.0763,71.8142 69.4343,70.0742 C68.7933,68.4262 68.0173,66.8692 67.1013,65.4022 C66.0933,63.9392 64.9493,62.5212 63.6673,61.1462 C62.3843,59.7712 60.9653,58.4922 59.4083,57.3012 C57.8543,56.2032 56.2053,55.1052 54.4633,54.0062 C52.7253,52.9062 50.8973,51.7622 48.9723,50.5722 C48.6043,50.3892 48.1933,50.1602 47.7353,49.8832 C47.3683,49.5192 46.9573,49.1992 46.4983,48.9242 C46.1313,48.6482 45.7213,48.4202 45.2643,48.2362 C44.8063,47.9632 44.3923,47.6872 44.0283,47.4102 C43.9363,47.4102 43.8453,47.3672 43.7523,47.2752 C43.6603,47.1872 43.5703,47.0922 43.4773,47.0022 L43.4773,46.8612 L43.4773,46.5902 L43.4773,46.4512 L43.4773,46.3142 C43.5703,46.2242 43.6603,46.1332 43.7523,46.0412 C43.8453,45.9492 43.9363,45.9022 44.0283,45.9022 C44.1193,45.8122 44.2113,45.7642 44.3013,45.7642 C44.3923,45.7642 44.4853,45.8122 44.5763,45.9022 C44.9423,45.9022 45.3553,45.9492 45.8133,46.0412 C46.1783,46.1332 46.5463,46.1782 46.9103,46.1782 C47.3683,46.2672 47.8273,46.3142 48.2853,46.3142 C48.6513,46.4062 49.0633,46.4512 49.5223,46.4512 C50.1623,46.6372 50.8483,46.7752 51.5823,46.8612 C52.2213,47.0492 52.9093,47.1872 53.6413,47.2752 C54.3733,47.3672 55.0613,47.4612 55.7013,47.5512 L57.7603,47.5512 C58.7683,47.6402 59.6843,47.6402 60.5083,47.5512 C61.3303,47.4612 62.1103,47.3242 62.8423,47.1392 C63.5743,46.9532 64.2173,46.6802 64.7663,46.3142 C65.4063,46.0412 65.9563,45.7212 66.4143,45.3512 C67.3283,44.6192 68.1543,43.7072 68.8853,42.6072 C69.6173,41.5992 70.2123,40.4082 70.6703,39.0352 C71.2213,37.5742 71.7243,36.1522 72.1823,34.7792 C72.6413,33.3142 73.0983,31.8472 73.5553,30.3832 C73.6473,29.9262 73.7373,29.4712 73.8303,29.0102 C73.9203,28.5532 74.0123,28.0962 74.1043,27.6352 C74.2863,27.1802 74.4243,26.7242 74.5163,26.2642 C74.6993,25.8062 74.8383,25.3922 74.9283,25.0272 C74.9283,24.9352 74.9733,24.8462 75.0673,24.7502 C75.1563,24.6622 75.2023,24.5702 75.2023,24.4782 C75.2933,24.4782 75.3863,24.4302 75.4773,24.3382 L75.8893,24.3382 L76.0263,24.3382 C76.1193,24.4302 76.2093,24.4782 76.3013,24.4782 C76.3933,24.5702 76.4383,24.6622 76.4383,24.7502 C76.5303,24.8462 76.5773,24.9352 76.5773,25.0272 C76.6683,25.3922 76.8053,25.8062 76.9873,26.2642 C77.0793,26.7242 77.2163,27.1802 77.4013,27.6352 C77.4903,28.0962 77.5823,28.5532 77.6733,29.0102 C77.7653,29.4712 77.9033,29.9262 78.0873,30.3832 C78.4533,31.8472 78.8663,33.3142 79.3223,34.7792 C79.7813,36.1522 80.2853,37.5742 80.8343,39.0352 C81.3823,40.4082 81.9793,41.5992 82.6183,42.6072 C83.3523,43.7072 84.1763,44.6192 85.0913,45.3512 C85.5493,45.7212 86.0993,46.0412 86.7393,46.3142 C87.2893,46.6802 87.9283,46.9532 88.6623,47.1392 C89.3953,47.3242 90.1723,47.4612 90.9963,47.5512 C91.8203,47.6402 92.7353,47.6402 93.7443,47.5512 L95.8033,47.5512 C96.4443,47.4612 97.1293,47.3672 97.8633,47.2752 C98.5043,47.1872 99.1923,47.0492 99.9243,46.8612 C100.6563,46.7752 101.3883,46.6372 102.1213,46.4512 C102.4873,46.4512 102.8993,46.4062 103.3583,46.3142 C103.7243,46.3142 104.1353,46.2672 104.5943,46.1782 C104.9593,46.1782 105.3243,46.1332 105.6903,46.0412 C106.0573,45.9492 106.4693,45.9022 106.9283,45.9022 C107.0203,45.8122 107.1123,45.7642 107.2023,45.7642 C107.2933,45.7642 107.3863,45.8122 107.4793,45.9022 C107.5703,45.9022 107.6603,45.9492 107.7503,46.0412 C107.8423,46.1332 107.9353,46.2242 108.0293,46.3142 L108.0293,46.4512 L108.0293,46.5902 L108.0293,46.8612 L108.0293,47.0022 C107.9353,47.0922 107.8423,47.1872 107.7503,47.2752 C107.6603,47.3672 107.5703,47.4102 107.4793,47.4102 C107.1123,47.6872 106.6983,47.9632 106.2403,48.2362 C105.8753,48.4202 105.4623,48.6482 105.0043,48.9242 C104.5473,49.2892 104.0893,49.6132 103.6313,49.8832 C103.1753,50.1602 102.7603,50.3892 102.3953,50.5722 C100.5653,51.7622 98.7793,52.9062 97.0383,54.0062 C95.3003,55.1052 93.6513,56.2032 92.0963,57.3012 C90.4473,58.4922 88.9823,59.7712 87.6983,61.1462 C86.4183,62.5212 85.3193,63.9392 84.4043,65.4022 M65.5893,106.4692 C66.7793,108.3902 67.8793,110.3612 68.8853,112.3732 C69.8003,114.2972 70.5333,116.3082 71.0823,118.4162 C71.7243,120.4312 72.1823,122.4472 72.4573,124.4612 C72.8223,126.5662 73.0063,128.6682 73.0063,130.7772 L73.0063,131.1892 C73.0063,131.2772 72.9593,131.4162 72.8683,131.6012 C67.5593,130.2262 62.3843,128.4432 57.3503,126.2462 C52.4043,124.0472 47.5533,121.4372 42.7913,118.4162 C38.0293,115.3942 34.0023,111.7772 30.7073,107.5662 C27.4083,103.3572 24.8463,98.5942 23.0143,93.2852 C22.3743,91.5472 21.8233,89.7602 21.3663,87.9282 C20.9993,86.0972 20.6803,84.2672 20.4053,82.4352 C20.3143,81.3342 20.2683,80.3282 20.2683,79.4122 C20.1763,78.4062 20.1313,77.3982 20.1313,76.3902 C20.1313,75.4782 20.1763,74.5582 20.2683,73.6462 C20.2683,72.7322 20.3143,71.8142 20.4053,70.8982 C20.7703,67.4162 21.4573,63.9842 22.4653,60.5972 C23.4733,57.3012 24.8463,54.0062 26.5863,50.7072 C28.2333,47.5022 30.2033,44.6192 32.4893,42.0562 C34.7803,39.4002 37.4363,37.0662 40.4573,35.0512 C39.2673,37.5232 38.0743,40.0432 36.8853,42.6072 C35.7873,45.0802 34.7353,47.5992 33.7253,50.1602 C32.7193,52.7222 32.0333,55.3342 31.6663,57.9882 C31.3933,60.6442 31.3933,63.3922 31.6663,66.2262 C31.9403,68.4262 32.4003,70.4842 33.0393,72.4062 C33.6813,74.4222 34.4593,76.3462 35.3753,78.1782 C36.3833,79.9162 37.5263,81.5642 38.8093,83.1212 C40.1813,84.6802 41.7393,86.1422 43.4773,87.5152 C44.4853,88.3402 45.5383,89.1192 46.6373,89.8492 C47.6433,90.5862 48.6963,91.2712 49.7953,91.9102 C50.8973,92.5512 51.9473,93.1952 52.9553,93.8322 C54.0533,94.5662 55.1083,95.2972 56.1133,96.0312 C57.1213,96.6722 58.0813,97.4062 58.9983,98.2282 C59.9123,99.0532 60.7373,99.9242 61.4693,100.8382 C62.2013,101.7542 62.8873,102.6722 63.5283,103.5842 C64.2623,104.5002 64.9493,105.4612 65.5893,106.4692" id="Fill-182" fill="#000000"></path>
    </g>
</svg>