<?xml version="1.0" encoding="UTF-8"?>
<svg width="150px" height="150px" viewBox="0 0 150 150" version="1.1" xmlns="http://www.w3.org/2000/svg" xmlns:xlink="http://www.w3.org/1999/xlink">
    <!-- Generator: Sketch 55.2 (78181) - https://sketchapp.com -->
    <title>Fighting</title>
    <desc>Created with Sketch.</desc>
    <g id="Fighting" stroke="none" stroke-width="1" fill="none" fill-rule="evenodd">
        <path d="M144.0586,75.8555 C144.0586,113.9785 113.1536,144.8845 75.0296,144.8845 C36.9056,144.8845 5.9996,113.9785 5.9996,75.8555 C5.9996,37.7305 36.9056,6.8265 75.0296,6.8265 C113.1536,6.8265 144.0586,37.7305 144.0586,75.8555" id="Fill-58" fill="#FF501F"></path>
        <path d="M121.0317,43.0352 L121.0317,44.0252 L121.0317,51.7262 L121.0317,58.5532 L121.0317,68.3612 C121.0317,69.7712 120.5347,70.9712 119.5427,71.9652 C118.4667,72.9552 117.2257,73.4552 115.8177,73.4552 L115.4447,73.4552 L114.8237,73.4552 L107.0017,73.4552 C105.5917,73.4552 104.3937,72.9552 103.4007,71.9652 C102.4087,70.9712 101.9107,69.7712 101.9107,68.3612 L101.9107,67.4942 L101.9107,67.2462 L101.9107,59.6702 L101.9107,52.8442 L101.9107,43.0352 C101.9107,41.6272 102.4087,40.4262 103.4007,39.4312 C104.3937,38.3572 105.5917,37.8182 107.0017,37.8182 L109.9807,37.8182 L115.8177,37.8182 C117.2257,37.8182 118.4667,38.3572 119.5427,39.4312 C120.5347,40.4262 121.0317,41.6272 121.0317,43.0352 L121.0317,43.0352 Z M77.8237,68.3612 L77.8237,67.2462 L77.8237,66.9982 L77.8237,57.9332 L77.8237,49.7382 L77.8237,37.9412 C77.8237,36.5332 78.3197,35.3342 79.3137,34.3462 C80.3057,33.3492 81.5067,32.8532 82.9127,32.8532 L83.9067,32.8532 L91.2327,32.8532 C92.6387,32.8532 93.8407,33.3492 94.8337,34.3462 C95.8277,35.3342 96.3237,36.5332 96.3237,37.9412 L96.3237,39.1852 L96.3237,48.3732 L96.3237,56.5682 L96.3237,68.3612 C96.3237,69.7712 95.8277,70.9712 94.8337,71.9652 C93.8407,72.9552 92.6387,73.4552 91.2327,73.4552 L89.9897,73.4552 L88.5027,73.4552 L82.9127,73.4552 C81.5067,73.4552 80.3057,72.9552 79.3137,71.9652 C78.3197,70.9712 77.8237,69.7712 77.8237,68.3612 L77.8237,68.3612 Z M116.9337,79.0412 C117.8447,79.8692 119.2097,81.0702 121.0317,82.6422 L121.0317,110.3322 C120.1197,111.1582 118.7547,112.3962 116.9337,114.0552 L100.9167,114.0552 C100.0047,114.8812 98.6387,116.1212 96.8197,117.7792 L96.8197,121.1332 C95.9077,121.9592 94.5417,123.2012 92.7227,124.8532 L60.3157,124.8532 L60.3157,118.1522 L64.0407,118.1522 C64.8667,117.3262 66.1087,116.1212 67.7667,114.5512 L67.7667,108.9632 C68.6767,108.1372 70.0417,106.8982 71.8637,105.2382 L78.1967,105.2382 C79.1057,104.4122 80.4717,103.2132 82.2927,101.6402 L82.2927,82.6422 C83.2037,81.8962 84.5697,80.6972 86.3907,79.0412 L116.9337,79.0412 Z M53.6127,68.3612 L53.6127,67.2462 L53.6127,66.9982 L53.6127,57.9332 L53.6127,49.7382 L53.6127,37.9412 C53.6127,36.5332 54.1077,35.3342 55.1017,34.3462 C56.0947,33.3492 57.2937,32.8532 58.7017,32.8532 L59.6957,32.8532 L67.1457,32.8532 C68.5537,32.8532 69.7527,33.3492 70.7467,34.3462 C71.7387,35.3342 72.2367,36.5332 72.2367,37.9412 L72.2367,39.1852 L72.2367,48.3732 L72.2367,56.5682 L72.2367,68.3612 C72.2367,69.7712 71.7387,70.9712 70.7467,71.9652 C69.7527,72.9552 68.5537,73.4552 67.1457,73.4552 L65.7807,73.4552 L64.2897,73.4552 L58.7017,73.4552 C57.2937,73.4552 56.0947,72.9552 55.1017,71.9652 C54.1077,70.9712 53.6127,69.7712 53.6127,68.3612 L53.6127,68.3612 Z M62.1777,96.5452 C61.2657,97.3772 59.9007,98.6172 58.0817,100.2712 L58.0817,110.3322 C57.1697,111.1582 55.8037,112.3962 53.9847,114.0552 L33.1247,114.0552 C32.2127,113.2262 30.8477,111.9862 29.0277,110.3322 L29.0277,82.6422 C29.9387,81.8962 31.3037,80.6972 33.1247,79.0412 L68.5107,79.0412 C69.4207,79.8692 70.7867,81.0702 72.6087,82.6422 L72.6087,92.8222 C71.6957,93.6502 70.3297,94.8922 68.5107,96.5452 L62.1777,96.5452 Z M29.0277,68.3612 L29.0277,67.4942 L29.0277,67.2462 L29.0277,59.6702 L29.0277,52.8442 L29.0277,43.0352 C29.0277,41.6272 29.5227,40.4262 30.5177,39.4312 C31.5107,38.3572 32.7097,37.8182 34.1167,37.8182 L35.2357,37.8182 L42.9327,37.8182 C44.3427,37.8182 45.5407,38.3572 46.5347,39.4312 C47.5277,40.4262 48.0237,41.6272 48.0237,43.0352 L48.0237,44.0252 L48.0237,51.7262 L48.0237,58.5532 L48.0237,68.3612 C48.0237,69.7712 47.5277,70.9712 46.5347,71.9652 C45.5407,72.9552 44.3427,73.4552 42.9327,73.4552 L41.6917,73.4552 L39.9537,73.4552 L34.1167,73.4552 C32.7097,73.4552 31.5107,72.9552 30.5177,71.9652 C29.5227,70.9712 29.0277,69.7712 29.0277,68.3612 L29.0277,68.3612 Z" id="Fill-63" fill="#000000"></path>
    </g>
</svg>