<?xml version="1.0" encoding="UTF-8"?>
<svg width="150px" height="150px" viewBox="0 0 150 150" version="1.1" xmlns="http://www.w3.org/2000/svg" xmlns:xlink="http://www.w3.org/1999/xlink">
    <!-- Generator: Sketch 55.2 (78181) - https://sketchapp.com -->
    <title>Fire</title>
    <desc>Created with Sketch.</desc>
    <g id="Fire" stroke="none" stroke-width="1" fill="none" fill-rule="evenodd">
        <path d="M144.1758,75.7383 C144.1758,113.8613 113.2708,144.7673 75.1468,144.7673 C37.0228,144.7673 6.1168,113.8613 6.1168,75.7383 C6.1168,37.6133 37.0228,6.7093 75.1468,6.7093 C113.2708,6.7093 144.1758,37.6133 144.1758,75.7383" id="Fill-14" fill="#E24242"></path>
        <path d="M130.0952,84.3809 C128.6222,90.7399 126.3152,96.5449 123.1842,101.7969 C120.0512,107.1449 116.1802,111.8909 111.5722,116.0369 C106.7792,120.2759 101.5702,123.5919 95.9522,125.9899 C90.2352,128.3849 84.0612,129.9059 77.4262,130.5509 C76.8752,130.5509 76.2732,130.5959 75.6292,130.6899 L73.9712,130.6899 L73.1412,130.6899 L72.1742,130.6899 C71.3452,130.5959 70.4672,130.5509 69.5482,130.5509 C68.7192,130.4609 67.8872,130.3629 67.0582,130.2739 L67.0582,130.1389 L67.0582,129.9979 L67.0582,129.7209 L67.0582,128.8929 C68.9952,129.2599 70.9302,129.4899 72.8642,129.5819 C74.8012,129.5819 76.6872,129.4469 78.5332,129.1699 C80.3752,128.7989 82.2172,128.3399 84.0612,127.7869 C85.9982,127.2329 87.8862,126.6329 89.7302,125.9899 C90.7432,125.6209 91.6182,125.1619 92.3562,124.6079 C93.0942,123.9609 93.6472,123.2699 94.0152,122.5309 C94.4752,121.7969 94.7062,120.9689 94.7062,120.0449 C94.7982,119.1229 94.6582,118.1579 94.2902,117.1409 C94.1042,116.6819 93.8762,116.2659 93.6002,115.8969 C93.4142,115.5329 93.1852,115.1619 92.9082,114.7909 C92.6332,114.4259 92.3562,114.1019 92.0802,113.8239 C91.8022,113.4569 91.6182,113.0449 91.5272,112.5799 C91.2512,112.1209 90.9732,111.6129 90.6972,111.0589 C90.5102,110.5979 90.3292,110.0919 90.1452,109.5389 C89.9582,108.9879 89.8202,108.4359 89.7302,107.8789 C89.5432,107.3279 89.4542,106.7739 89.4542,106.2209 C89.4542,105.1169 89.6372,104.1019 90.0072,103.1799 C90.2822,102.3519 90.8362,101.5199 91.6652,100.6939 C92.4952,100.0489 93.3252,99.4009 94.1532,98.7559 C94.9822,98.1129 95.8132,97.5589 96.6432,97.0979 C95.8132,97.0979 94.9822,97.1449 94.1532,97.2359 L91.8022,97.2359 C91.0642,97.4219 90.2822,97.6039 89.4542,97.7869 C88.7152,97.9749 87.9332,98.2499 87.1032,98.6189 C86.2732,98.8049 85.5822,99.1249 85.0312,99.5839 C84.3842,99.9569 83.8312,100.4159 83.3702,100.9669 C82.8172,101.5199 82.2652,102.0739 81.7132,102.6269 C81.1602,103.1799 80.6532,103.7769 80.1912,104.4239 C80.2822,103.1369 80.2372,101.8889 80.0532,100.6939 C79.8662,99.4939 79.5902,98.2949 79.2252,97.0979 C78.8542,95.9899 78.2552,95.0259 77.4262,94.1969 C76.5972,93.3649 75.5822,92.6269 74.3862,91.9809 C74.1982,91.8929 74.0162,91.8439 73.8312,91.8439 C73.7402,91.7539 73.6462,91.6579 73.5562,91.5699 L73.1412,91.5699 C73.0512,91.4789 72.9102,91.4299 72.7262,91.4299 C72.3582,91.4299 72.1742,91.2029 72.1742,90.7399 C72.0812,90.3729 72.1742,89.7679 72.4492,88.9419 C72.5392,88.2049 72.6362,87.6079 72.7262,87.1449 C72.9102,86.6839 73.0032,86.4059 73.0032,86.3169 C73.2782,85.6719 73.6022,85.0699 73.9712,84.5159 C74.3372,83.9629 74.7522,83.4609 75.2152,82.9959 C75.5822,82.5369 75.9972,82.0779 76.4602,81.6129 C76.9192,81.1539 77.4262,80.6929 77.9802,80.2309 C77.0592,80.3239 76.1362,80.4629 75.2152,80.6469 C74.2932,80.8339 73.3702,81.0649 72.4492,81.3399 C71.5272,81.6129 70.6532,81.9379 69.8242,82.3089 C68.9952,82.6739 68.1652,83.0879 67.3352,83.5509 C66.5972,84.0119 65.8612,84.5159 65.1232,85.0699 C64.3852,85.5329 63.6482,86.0879 62.9112,86.7289 C62.1732,87.2829 61.5752,87.9279 61.1132,88.6659 C60.6532,89.4059 60.3312,90.1859 60.1482,91.0139 C59.9602,92.0309 59.9602,92.9509 60.1482,93.7769 C60.3312,94.7029 60.7452,95.4399 61.3902,95.9899 C62.1272,96.6369 62.7732,97.2849 63.3262,97.9279 C63.8792,98.5699 64.3852,99.2639 64.8482,100.0019 C65.4892,100.7379 65.8152,101.5199 65.8152,102.3519 C65.8152,103.2719 65.5382,104.1469 64.9852,104.9749 C64.5222,105.8989 64.0182,106.7289 63.4652,107.4649 C62.9112,108.1099 62.3592,108.7089 61.8062,109.2619 C61.8962,108.3439 61.8962,107.5139 61.8062,106.7739 C61.7142,106.0389 61.5292,105.4419 61.2532,104.9749 C60.9772,104.5159 60.5152,104.1019 59.8702,103.7329 C59.3182,103.2719 58.5782,102.8579 57.6582,102.4879 C56.9202,102.2109 56.1842,101.9849 55.4482,101.7969 C54.7072,101.6129 53.9262,101.4769 53.0952,101.3849 L50.7482,101.3849 L48.3972,101.3849 C49.2262,101.8459 50.1012,102.3049 51.0222,102.7659 C51.8522,103.2309 52.6822,103.7329 53.5112,104.2849 C54.3402,104.7479 54.8932,105.3929 55.1692,106.2209 C55.5372,107.0529 55.6742,108.0199 55.5852,109.1269 C55.4932,110.0489 55.1692,110.9219 54.6172,111.7499 C54.1532,112.5799 53.4632,113.3649 52.5422,114.1019 C51.6232,114.9319 51.0222,115.8069 50.7482,116.7269 C50.5612,117.5589 50.6542,118.4789 51.0222,119.4919 C51.5752,121.0609 52.4052,122.3969 53.5112,123.4999 C54.6172,124.6079 55.9512,125.4809 57.5202,126.1269 C59.1782,126.7699 60.7902,127.3219 62.3592,127.7869 C63.9272,128.3399 65.4892,128.7049 67.0582,128.8929 L67.0582,129.0329 L67.0582,129.1699 L67.0582,129.4469 L67.0582,130.2739 C64.7552,129.9059 62.4492,129.3539 60.1482,128.6149 C57.9352,127.9729 55.7232,127.1859 53.5112,126.2639 C51.3002,125.3459 49.1782,124.3769 47.1522,123.3629 C45.1252,122.3499 43.1902,121.2439 41.3462,120.0449 C38.6732,118.2989 36.2312,116.4059 34.0192,114.3769 C31.8062,112.3499 29.8242,110.1819 28.0752,107.8789 C26.3242,105.5799 24.8032,103.0899 23.5142,100.4159 C22.1312,97.7439 21.0252,94.9339 20.1962,91.9809 C21.4852,93.3649 22.9112,94.7029 24.4812,95.9899 C26.1402,97.1919 27.9852,98.4359 30.0112,99.7249 C31.9462,100.9219 33.6942,101.8459 35.2642,102.4879 C36.7372,103.1369 38.0292,103.4589 39.1362,103.4589 C37.5672,101.4319 36.0442,99.2639 34.5732,96.9569 C33.0972,94.6559 31.6222,92.2599 30.1492,89.7679 C28.6752,87.1939 27.6622,84.6109 27.1072,82.0269 C26.5532,79.4509 26.4632,76.8239 26.8322,74.1469 C27.0152,72.8599 27.2452,71.6599 27.5222,70.5569 C27.7062,69.3579 27.9852,68.2519 28.3522,67.2379 C28.7192,66.1329 29.1332,65.0719 29.5952,64.0569 C30.1492,63.0449 30.8402,61.9859 31.6702,60.8769 C32.4072,59.8649 33.1902,58.8559 34.0192,57.8379 C34.9392,56.8259 35.8632,55.8559 36.7822,54.9359 C37.7042,54.0159 38.6732,53.1369 39.6882,52.3069 C40.7012,51.4789 41.7142,50.6039 42.7282,49.6839 C41.7142,51.0649 40.8852,52.4449 40.2402,53.8279 C39.5012,55.1189 38.9052,56.4549 38.4442,57.8379 C37.9812,59.1289 37.7042,60.5139 37.6142,61.9859 C37.5222,63.4609 37.6582,64.9809 38.0292,66.5469 C38.1192,67.2849 38.3502,68.0669 38.7192,68.8989 C38.9962,69.6369 39.4092,70.4159 39.9652,71.2459 C40.5172,72.1679 41.0212,72.9529 41.4842,73.5959 C41.9452,74.2399 42.4052,74.8399 42.8662,75.3949 C43.3272,75.9489 43.8802,76.4999 44.5262,77.0509 C45.0772,77.6059 45.6782,78.1579 46.3222,78.7109 C46.9682,79.2639 47.6142,79.7699 48.2582,80.2309 C48.9962,80.6929 49.6862,81.0649 50.3312,81.3399 C50.0562,80.7869 49.7792,80.1409 49.5032,79.4039 C49.2262,78.7619 48.9962,78.1129 48.8112,77.4709 C48.5342,76.8239 48.3042,76.1329 48.1202,75.3949 C47.8432,74.7499 47.6142,74.1059 47.4282,73.4589 C46.9682,72.2639 46.6892,71.0179 46.6012,69.7249 C46.5072,68.4359 46.5522,67.1489 46.7382,65.8559 C46.9232,64.3809 47.2422,63.0449 47.7042,61.8459 C48.1662,60.6509 48.7612,59.5449 49.5032,58.5289 C50.4232,57.4219 51.3452,56.3649 52.2662,55.3499 C53.1862,54.4279 54.2022,53.5079 55.3072,52.5859 C56.3222,51.6639 57.3342,50.7419 58.3492,49.8179 C59.4552,48.8989 60.5602,47.9769 61.6672,47.0549 C62.4962,46.3169 63.4652,45.5349 64.5692,44.7029 C65.6782,43.8769 66.8722,42.9999 68.1652,42.0779 C69.4542,41.0649 70.4672,40.0039 71.2062,38.9019 C72.0352,37.7929 72.5392,36.6429 72.7262,35.4429 C72.9102,33.9689 72.9102,32.5879 72.7262,31.2969 C72.4492,30.0059 71.9422,28.8069 71.2062,27.7009 C70.5612,26.5059 69.8242,25.3049 68.9952,24.1059 C68.2552,23.0019 67.4732,21.8969 66.6442,20.7869 C69.4982,21.7109 72.0812,22.8179 74.3862,24.1059 C76.6872,25.4919 78.7622,27.0589 80.6062,28.8069 C82.3542,30.6519 83.9252,32.6759 85.3062,34.8889 C86.6902,37.0119 87.8862,39.3149 88.9002,41.8009 C89.8202,44.4769 90.6482,47.1469 91.3902,49.8179 C92.0322,52.4939 92.5392,55.2109 92.9082,57.9769 C93.2762,60.6509 93.3702,63.4159 93.1852,66.2699 C93.0012,69.0329 92.5852,71.8929 91.9422,74.8399 C93.3252,74.7499 94.7522,74.6129 96.2272,74.4279 C97.7002,74.2399 99.1752,74.0119 100.6502,73.7349 C102.0352,73.3689 103.3682,72.9039 104.6602,72.3519 C106.0412,71.7989 107.3312,71.1579 108.5302,70.4159 C109.2682,70.0509 109.9122,69.6369 110.4652,69.1719 C111.1102,68.8089 111.7562,68.4359 112.4032,68.0669 C112.8612,67.6079 113.3702,67.1489 113.9212,66.6839 C114.4752,66.1329 114.9792,65.5799 115.4422,65.0259 C115.9042,64.4749 116.2732,63.9179 116.5482,63.3649 C116.9162,62.8169 117.1912,62.2599 117.3782,61.7069 C117.6552,61.0669 117.8392,60.4179 117.9312,59.7739 C118.1142,59.2209 118.2532,58.6209 118.3462,57.9769 C118.8982,58.9919 119.4042,60.0039 119.8662,61.0179 C120.4202,62.1229 120.8802,63.1839 121.2482,64.1969 C121.7092,65.3009 122.0312,66.4059 122.2162,67.5139 C122.4002,68.6189 122.4942,69.7769 122.4942,70.9709 C122.4002,71.9849 122.2622,72.9039 122.0772,73.7349 C121.8922,74.5629 121.6142,75.3949 121.2482,76.2209 C120.9712,76.9609 120.6472,77.7439 120.2822,78.5739 C119.9122,79.4039 119.5422,80.2309 119.1752,81.0649 C118.2532,82.9059 117.1022,84.5669 115.7202,86.0369 C114.3372,87.6079 112.7682,88.9879 111.0202,90.1859 C109.2682,91.4789 107.5142,92.6269 105.7652,93.6429 C104.0142,94.7459 102.2172,95.7169 100.3752,96.5449 C101.1122,96.8199 101.8482,97.0509 102.5862,97.2359 C103.4162,97.3279 104.2922,97.3279 105.2142,97.2359 C106.0412,97.2359 106.9182,97.1449 107.8402,96.9569 C108.7612,96.7739 109.7272,96.5449 110.7422,96.2699 C112.5852,95.7169 114.4282,95.0259 116.2732,94.1969 C118.1142,93.3649 119.9562,92.3969 121.8022,91.2929 C123.6442,90.1859 125.2582,89.0799 126.6392,87.9749 C128.0242,86.7769 129.1752,85.5779 130.0952,84.3809" id="Fill-19" fill="#000000"></path>
    </g>
</svg>