<?xml version="1.0" encoding="UTF-8"?>
<svg width="150px" height="150px" viewBox="0 0 150 150" version="1.1" xmlns="http://www.w3.org/2000/svg" xmlns:xlink="http://www.w3.org/1999/xlink">
    <!-- Generator: Sketch 55.2 (78181) - https://sketchapp.com -->
    <title>Grass</title>
    <desc>Created with Sketch.</desc>
    <g id="Grass" stroke="none" stroke-width="1" fill="none" fill-rule="evenodd">
        <path d="M144.059,75.029 C144.059,113.152 113.154,144.058 75.03,144.058 C36.906,144.058 6,113.152 6,75.029 C6,36.904 36.906,6 75.03,6 C113.154,6 144.059,36.904 144.059,75.029" id="Fill-1" fill="#7DB808"></path>
        <path d="M108.9721,73.0719 L108.8361,73.0719 L108.5671,73.0719 C108.4761,72.9839 108.3421,72.8919 108.1621,72.8009 C108.0731,72.7129 107.9811,72.6209 107.8921,72.5309 C108.0731,72.6209 108.2501,72.7129 108.4311,72.8009 C108.6111,72.8919 108.7901,72.9839 108.9721,73.0719 L108.9721,73.0719 Z M107.8921,88.8629 C107.3521,88.6809 106.8571,88.5469 106.4071,88.4569 C105.8671,88.2769 105.3271,88.1419 104.7891,88.0509 C105.1461,88.1419 105.5511,88.2769 106.0021,88.4569 C106.3611,88.5469 106.7211,88.6809 107.0821,88.8629 L107.4871,88.8629 L107.8921,88.8629 Z M101.4151,55.9309 L101.2791,55.9309 C101.1891,55.9309 101.0971,55.8859 101.0091,55.7969 C101.1891,55.8859 101.3241,55.9309 101.4151,55.9309 C101.5021,55.9309 101.5931,55.9779 101.6841,56.0659 L101.5491,56.0659 C101.4591,56.0659 101.4151,56.0189 101.4151,55.9309 L101.4151,55.9309 Z M82.6551,37.9819 C82.2951,38.5209 81.9801,39.0189 81.7121,39.4669 C81.4411,39.9199 81.1231,40.4099 80.7651,40.9509 C81.0341,40.5949 81.3051,40.2299 81.5761,39.8709 C81.7561,39.5149 81.9801,39.1519 82.2511,38.7929 C82.3371,38.7049 82.3851,38.5699 82.3851,38.3859 C82.4731,38.3009 82.5661,38.1639 82.6551,37.9819 L82.6551,37.9819 Z M75.3671,58.2259 C75.2781,58.2259 75.2321,58.2709 75.2321,58.3609 L75.0971,58.3609 C75.1861,58.0019 75.3211,57.6399 75.5011,57.2809 C75.5911,56.9219 75.7251,56.5619 75.9081,56.2029 C75.8171,56.5619 75.6811,56.9219 75.5011,57.2809 C75.4121,57.5489 75.3671,57.8689 75.3671,58.2259 L75.3671,58.2259 Z M71.1841,72.3959 C71.2721,72.3059 71.3191,72.2169 71.3191,72.1269 L71.3191,72.3959 L71.3191,72.6659 L71.1841,72.6659 L71.1841,72.3959 Z M70.2391,58.7649 L70.3741,58.7649 L70.3741,58.8999 L70.3741,58.7649 L70.2391,58.7649 Z M67.9451,91.0189 L67.9451,91.1539 L67.9451,91.5599 L67.9451,92.1009 L67.8101,92.1009 C67.8101,91.9219 67.8551,91.7439 67.9451,91.5599 L67.9451,91.0189 Z M64.8401,72.1269 C64.9291,72.1269 65.0201,72.1739 65.1121,72.2609 L65.2451,72.2609 L65.2451,72.3959 C65.1561,72.3059 65.0651,72.2609 64.9761,72.2609 C64.9761,72.1739 64.9291,72.1269 64.8401,72.1269 L64.8401,72.1269 Z M60.7901,89.4019 C60.9711,89.4019 61.1061,89.4469 61.1981,89.5349 C61.3771,89.6269 61.5121,89.6719 61.6021,89.6719 L61.6021,89.8059 C61.5121,89.7179 61.3771,89.6269 61.1981,89.5349 C61.1061,89.4469 60.9711,89.4019 60.7901,89.4019 L60.7901,89.4019 Z M51.8861,55.2579 L52.2891,55.2579 L52.5601,55.2579 L52.0201,55.2579 L51.4801,55.2579 L51.6141,55.2579 L51.8861,55.2579 Z M108.7021,73.0719 C108.7901,73.0719 108.8361,73.1189 108.8361,73.2049 L109.1061,73.2049 C108.5671,72.6659 107.9371,72.1739 107.2171,71.7219 C106.4071,71.2709 105.5511,70.8669 104.6541,70.5079 C103.8441,70.1499 102.9881,69.8319 102.0901,69.5619 C101.2791,69.2929 100.4691,69.0679 99.6601,68.8879 C98.8511,68.7089 98.0401,68.5289 97.2301,68.3469 C96.4211,68.1679 95.6111,67.9899 94.8001,67.8059 C93.9921,67.6289 93.1351,67.5369 92.2381,67.5369 C91.4281,67.4509 90.5721,67.4509 89.6731,67.5369 C87.9641,67.6289 86.3001,67.7629 84.6791,67.9409 C83.0601,68.2129 81.4841,68.4819 79.9551,68.7519 C78.6061,69.0229 77.3031,69.4719 76.0421,70.1029 C74.7801,70.6419 73.5221,71.3159 72.2631,72.1269 C72.1731,72.2169 72.0391,72.3059 71.8591,72.3959 C71.6761,72.3959 71.5411,72.4449 71.4531,72.5309 C71.5411,72.0799 71.6331,71.5859 71.7241,71.0469 C71.9051,70.5969 72.0391,70.1029 72.1281,69.5619 C72.3081,69.1109 72.4441,68.6149 72.5331,68.0779 C72.6221,67.6289 72.7571,67.1789 72.9381,66.7259 C74.7381,64.7499 76.7171,63.0839 78.8761,61.7339 C81.1231,60.2969 83.5531,59.1269 86.1641,58.2259 C87.9641,57.5969 89.8541,57.1009 91.8321,56.7419 C93.7211,56.3829 95.6551,56.2029 97.6361,56.2029 L99.1191,56.2029 L100.6051,56.2029 L101.2791,56.2029 C101.5491,56.2029 101.8191,56.2479 102.0901,56.3379 C101.9981,56.2479 101.9071,56.2029 101.8191,56.2029 L101.6841,56.0659 L101.9541,56.0659 L102.0901,56.0659 C101.5491,55.7969 101.0091,55.5719 100.4691,55.3899 C99.9301,55.1209 99.3891,54.8979 98.8511,54.7169 C98.3091,54.5369 97.7231,54.3569 97.0951,54.1769 C96.5551,54.0899 95.9691,53.9979 95.3411,53.9079 C94.0791,53.7279 92.8211,53.6359 91.5631,53.6359 C90.3001,53.6359 88.9991,53.6829 87.6491,53.7729 C86.4791,53.8609 85.3531,53.9979 84.2751,54.1769 C83.1041,54.4469 82.0261,54.7629 81.0341,55.1209 C80.2251,55.3899 79.4611,55.7519 78.7411,56.2029 C77.9311,56.5619 77.2091,57.0109 76.5821,57.5489 C76.4001,57.6399 76.2221,57.7339 76.0421,57.8219 C75.7721,57.9119 75.5471,58.0449 75.3671,58.2259 C75.9081,56.5169 76.4911,54.8509 77.1221,53.2319 C77.6611,51.5249 78.2461,49.8589 78.8761,48.2399 C79.3261,47.0699 79.7731,45.8999 80.2251,44.7299 C80.6761,43.5619 81.1231,42.3469 81.5761,41.0859 C81.7561,40.6339 81.9801,40.1379 82.2511,39.6009 C82.4301,39.0619 82.6081,38.5699 82.7891,38.1169 C82.7001,38.2069 82.6551,38.3009 82.6551,38.3859 C82.5661,38.4759 82.4731,38.5699 82.3851,38.6559 C82.4731,38.5699 82.5201,38.4329 82.5201,38.2519 C82.5201,38.1639 82.5661,38.0719 82.6551,37.9819 C81.3941,39.6009 80.1801,41.2669 79.0131,42.9779 C77.9311,44.5929 76.8521,46.3059 75.7721,48.1029 C74.8731,49.6339 74.0171,51.2109 73.2081,52.8299 C72.3981,54.3569 71.6761,55.9309 71.0491,57.5489 C70.9581,57.7339 70.8681,57.9119 70.7781,58.0919 C70.6891,58.2709 70.5971,58.4489 70.5091,58.6309 C70.1491,58.3609 69.7431,58.0919 69.2951,57.8219 C68.8431,57.5489 68.3491,57.2809 67.8101,57.0109 C67.1801,56.6539 66.7301,56.3829 66.4611,56.2029 C66.1001,56.0189 65.8731,55.9309 65.7851,55.9309 C64.7051,55.3899 63.5801,54.9859 62.4111,54.7169 C61.2421,54.3569 60.0281,54.1309 58.7681,54.0409 C57.6881,53.9529 56.5601,53.9529 55.3931,54.0409 C54.3131,54.1309 53.2791,54.4019 52.2891,54.8509 C52.1081,54.9409 51.9301,54.9859 51.7501,54.9859 C51.6601,54.9859 51.5251,55.0349 51.3451,55.1209 L51.4801,55.1209 L51.6141,55.1209 C51.6141,55.2109 51.5681,55.2579 51.4801,55.2579 L51.3451,55.2579 C52.2431,55.4389 53.0991,55.6149 53.9101,55.7969 C54.7191,55.8859 55.5741,56.0659 56.4721,56.3379 C57.2831,56.5169 58.0471,56.7869 58.7681,57.1459 C59.4881,57.5969 60.2061,58.0919 60.9261,58.6309 C61.5551,59.0819 62.1861,59.5289 62.8161,59.9779 C63.4441,60.5209 64.0311,61.0599 64.5721,61.5989 C65.1121,62.1399 65.6041,62.7689 66.0551,63.4859 C66.5961,64.2089 67.0001,64.9269 67.2691,65.6499 L67.1361,66.0519 C67.0451,66.3239 66.6831,67.2649 66.0551,68.8879 C65.8731,69.4259 65.7381,69.9219 65.6491,70.3729 C65.4701,70.9119 65.3801,71.4059 65.3801,71.8569 L65.3801,71.9919 C65.2911,71.9919 65.2451,72.0389 65.2451,72.1269 C64.7051,71.7689 64.1651,71.4059 63.6271,71.0469 C63.1741,70.7769 62.6801,70.5079 62.1411,70.2379 C61.6021,69.9679 61.0621,69.7439 60.5231,69.5619 C59.8921,69.2929 59.2601,69.0679 58.6341,68.8879 C58.0031,68.6149 57.3271,68.4389 56.6091,68.3469 C55.8861,68.1679 55.1231,68.0779 54.3131,68.0779 C53.5041,67.9899 52.6951,67.9409 51.8861,67.9409 L49.8591,67.9409 C48.9601,68.0329 48.1521,68.1249 47.4311,68.2129 C46.6211,68.3939 45.8561,68.5739 45.1361,68.7519 C44.6841,68.8429 44.1461,68.9779 43.5171,69.1579 C42.9771,69.4259 42.3481,69.7439 41.6281,70.1029 C41.5381,70.1909 41.4031,70.2379 41.2231,70.2379 C41.0421,70.3259 40.8641,70.4199 40.6831,70.5079 L40.9531,70.5079 L41.0871,70.5079 L40.9531,70.5079 C40.8641,70.5969 40.7711,70.6419 40.6831,70.6419 C43.1121,70.5539 45.4071,70.5969 47.5651,70.7769 C49.7251,71.0469 51.7501,71.4529 53.6391,71.9919 C55.4391,72.6209 57.1011,73.5209 58.6341,74.6909 C60.2511,75.9529 61.7371,77.4779 63.0851,79.2809 C62.8161,80.1769 62.5921,81.0799 62.4111,81.9779 C62.2301,82.7889 62.0531,83.6439 61.8721,84.5429 C61.7821,85.2649 61.7371,86.0269 61.7371,86.8359 C61.6461,87.5579 61.6461,88.2769 61.7371,88.9959 L61.7371,89.2669 C61.6461,89.3549 61.6021,89.4469 61.6021,89.5349 C60.7011,89.0839 59.8001,88.6359 58.9021,88.1849 C58.0031,87.7359 57.1011,87.2869 56.2031,86.8359 C55.2111,86.3879 54.2251,86.0269 53.2341,85.7579 C52.2431,85.4879 51.2111,85.2649 50.1291,85.0819 C49.0511,84.8999 47.9721,84.8139 46.8911,84.8139 C45.8121,84.8139 44.6421,84.8999 43.3841,85.0819 C42.3921,85.1719 41.4461,85.3509 40.5471,85.6209 C39.5561,85.8899 38.7031,86.3429 37.9841,86.9699 C37.8931,87.0599 37.7591,87.1049 37.5781,87.1049 C37.4891,87.1969 37.3541,87.2869 37.1751,87.3749 L37.3091,87.3749 L37.4441,87.3749 L37.3091,87.5109 L37.1751,87.5109 L37.3091,87.5109 L37.8481,87.5109 C39.1091,87.5109 40.2781,87.5579 41.3591,87.6479 C42.5261,87.7359 43.6051,87.8709 44.5981,88.0509 C45.6761,88.2339 46.8031,88.5469 47.9721,88.9959 C49.0511,89.3549 50.1291,89.8059 51.2111,90.3449 C52.1081,90.7969 53.0531,91.3359 54.0441,91.9649 C54.9431,92.5949 55.8421,93.2259 56.7431,93.8549 C57.5521,94.6659 58.3621,95.4289 59.1731,96.1479 C59.8921,96.9589 60.6561,97.7219 61.4661,98.4429 L61.4661,98.7149 C61.4661,98.8019 61.5121,99.3429 61.6021,100.3319 C61.6891,101.5019 61.8241,102.7609 62.0071,104.1109 C62.2761,105.3729 62.5471,106.7199 62.8161,108.1599 C63.0851,109.6009 63.5801,110.9079 64.3011,112.0739 C64.9291,113.1519 65.8311,114.0989 67.0001,114.9079 L67.1361,114.9079 L67.1361,115.0429 C67.2221,115.0429 67.2691,114.9979 67.2691,114.9079 L67.4051,114.9079 L67.4051,114.7729 C67.3161,113.6049 67.2691,112.4329 67.2691,111.2649 L67.2691,107.7559 C67.1801,106.5879 67.1801,105.4159 67.2691,104.2459 L67.2691,101.0079 C68.4371,99.6579 69.7011,98.4429 71.0491,97.3649 C72.3981,96.2829 73.7921,95.3399 75.2321,94.5289 C76.5821,93.6309 78.0661,92.8199 79.6861,92.1009 C81.3051,91.3809 83.0131,90.7519 84.8131,90.2109 C86.4341,89.6719 88.1411,89.3119 89.9431,89.1309 C91.7421,88.8629 93.5861,88.7239 95.4771,88.7239 L95.6111,88.7239 L96.1511,88.7239 L100.4691,88.7239 C101.9071,88.8159 103.3481,88.8629 104.7891,88.8629 C105.2381,88.8629 105.7311,88.9079 106.2731,88.9959 C106.8141,88.9959 107.3521,89.0429 107.8921,89.1309 C107.8031,89.0429 107.7101,88.9959 107.6221,88.9959 C107.5321,88.9959 107.4391,88.9509 107.3521,88.8629 L107.6221,88.8629 L108.0271,88.8629 C106.2251,88.0509 104.3841,87.4239 102.4931,86.9699 C100.6051,86.4309 98.7141,86.0739 96.8271,85.8899 C94.9361,85.7129 93.0471,85.6209 91.1571,85.6209 C89.2671,85.6209 87.4241,85.6699 85.6241,85.7579 C84.0041,85.8469 82.3851,86.0739 80.7651,86.4309 C79.2341,86.7009 77.6611,87.0599 76.0421,87.5109 C74.6031,87.9649 73.2531,88.5039 71.9931,89.1309 C70.8241,89.8509 69.7431,90.6619 68.7541,91.5599 C68.6651,91.6499 68.5721,91.6949 68.4841,91.6949 C68.3031,91.7849 68.1691,91.8769 68.0781,91.9649 C68.1691,91.0679 68.2591,90.2109 68.3491,89.4019 C68.4371,88.5039 68.5721,87.6009 68.7541,86.7009 C68.8431,85.8039 68.9781,84.8999 69.1601,84.0019 C69.2471,83.1029 69.3821,82.2479 69.5641,81.4389 C70.6431,80.2729 71.8591,79.2319 73.2081,78.3359 C74.4681,77.4369 75.8611,76.6269 77.3911,75.9059 C78.8291,75.1829 80.3141,74.5539 81.8451,74.0149 C83.3741,73.4739 84.9021,73.0269 86.4341,72.6659 C88.4121,72.2169 90.3471,71.9019 92.2381,71.7219 C94.1261,71.5429 95.9691,71.4979 97.7701,71.5859 C99.1191,71.6759 100.4691,71.8119 101.8191,71.9919 C103.2571,72.1739 104.6981,72.3959 106.1381,72.6659 C106.5871,72.7579 107.0351,72.8469 107.4871,72.9349 C108.0271,73.0269 108.5211,73.1599 108.9721,73.3419 L108.8361,73.2049 C108.7471,73.2049 108.7021,73.1599 108.7021,73.0719 L108.7021,73.0719 Z M127.5961,84.0019 L127.5961,84.6769 L127.5961,84.8139 L127.5961,85.7579 C127.5961,87.7359 127.4141,89.5819 127.0561,91.2909 C126.6041,92.9999 125.9771,94.6189 125.1671,96.1479 C124.3571,97.6809 123.3231,99.1189 122.0631,100.4679 C120.8021,101.9059 119.3161,103.2129 117.6091,104.3829 C116.1701,105.5509 114.5931,106.6309 112.8861,107.6189 C111.2661,108.5209 109.5991,109.3279 107.8921,110.0509 C106.0911,110.8589 104.2941,111.5819 102.4931,112.2089 C100.6921,112.8379 98.8951,113.3769 97.0951,113.8279 C95.1171,114.3669 93.1811,114.8219 91.2921,115.1789 C89.4031,115.6309 87.5141,116.0779 85.6241,116.5269 C83.7361,116.8859 81.8451,117.2499 79.9551,117.6069 C77.9761,117.8749 75.9951,118.0579 74.0171,118.1459 C74.1971,119.8549 74.4241,121.4719 74.6921,123.0059 C74.8731,124.6249 75.0971,126.1539 75.3671,127.5929 L74.9621,127.5929 L74.6921,127.5929 L69.7011,127.5929 L65.1121,127.5929 L58.7681,127.5929 C58.2261,126.1539 57.7761,124.5779 57.4181,122.8689 C56.9661,121.1619 56.6531,119.3179 56.4721,117.3379 C54.1321,116.8859 51.7941,116.3469 49.4551,115.7169 C47.0251,114.9979 44.6841,114.1869 42.4371,113.2889 C40.0971,112.3879 37.9381,111.3119 35.9601,110.0509 C33.9791,108.8829 32.1801,107.5329 30.5611,106.0019 C28.4021,104.1109 26.6931,102.0879 25.4331,99.9269 C24.1711,97.6809 23.3621,95.3399 23.0031,92.9099 C22.9131,92.1929 22.8221,91.5149 22.7341,90.8849 C22.6441,90.2579 22.5971,89.6269 22.5971,88.9959 C22.5101,88.0059 22.4631,87.0169 22.4631,86.0269 C22.4631,85.1309 22.5101,84.2259 22.5971,83.3279 C22.6871,81.4389 22.9131,79.5509 23.2741,77.6599 C23.9011,74.1499 25.0741,70.8239 26.7831,67.6739 C28.4911,64.4349 30.7401,61.3769 33.5311,58.4959 C36.2301,55.6149 39.0181,52.9629 41.8981,50.5329 C44.8671,48.1029 47.8361,45.8999 50.8061,43.9199 C53.9531,41.7589 57.1491,39.6909 60.3881,37.7109 C63.7141,35.7339 67.0451,33.8429 70.3741,32.0449 C73.8841,30.2459 77.3911,28.5819 80.8991,27.0519 C84.4091,25.4309 87.9641,23.9019 91.5631,22.4629 C94.0791,26.0599 96.7341,29.6149 99.5251,33.1229 C102.3131,36.6339 105.1921,40.0519 108.1621,43.3789 C111.1301,46.8019 113.7401,50.3529 115.9901,54.0409 C118.3291,57.8219 120.3531,61.7339 122.0631,65.7829 C122.7831,67.4019 123.4581,69.0229 124.0881,70.6419 C124.7141,72.3509 125.3021,74.0149 125.8411,75.6349 C126.3811,76.9839 126.7871,78.3359 127.0561,79.6849 C127.3261,81.1229 127.5081,82.5659 127.5961,84.0019 L127.5961,84.0019 Z" id="Fill-8" fill="#000000"></path>
    </g>
</svg>