<?xml version="1.0" encoding="UTF-8"?>
<svg width="150px" height="150px" viewBox="0 0 150 150" version="1.1" xmlns="http://www.w3.org/2000/svg" xmlns:xlink="http://www.w3.org/1999/xlink">
    <!-- Generator: Sketch 55.2 (78181) - https://sketchapp.com -->
    <title>Lightning</title>
    <desc>Created with Sketch.</desc>
    <g id="Lightning" stroke="none" stroke-width="1" fill="none" fill-rule="evenodd">
        <path d="M144.5278,75.7383 C144.5278,113.8613 113.6218,144.7673 75.4988,144.7673 C37.3738,144.7673 6.4688,113.8613 6.4688,75.7383 C6.4688,37.6133 37.3738,6.7093 75.4988,6.7093 C113.6218,6.7093 144.5278,37.6133 144.5278,75.7383" id="Fill-36" fill="#FAB536"></path>
        <path d="M88.0288,23.7227 C86.3328,28.2797 84.1428,33.9547 81.4638,40.7437 C78.7818,47.5337 75.6998,55.4867 72.2158,64.6017 C77.2178,63.3517 83.5158,61.8767 91.1118,60.1777 C98.7078,58.3927 107.5528,56.3397 117.6488,54.0137 C111.9298,62.3247 104.7368,72.6897 96.0708,85.1097 C87.4928,97.5297 77.4428,112.0487 65.9148,128.6657 C67.7938,122.7697 70.1578,115.4457 73.0198,106.6877 C75.8798,97.9297 79.1838,87.6567 82.9358,75.8597 C77.3948,77.4687 70.5178,79.3927 62.2978,81.6247 C54.0748,83.8577 44.4248,86.4937 33.3458,89.5337 C39.4218,82.2067 47.0168,73.0447 56.1308,62.0567 C65.2458,51.1547 75.8798,38.3787 88.0288,23.7227" id="Fill-41" fill="#000000"></path>
    </g>
</svg>