<?xml version="1.0" encoding="UTF-8"?>
<svg width="150px" height="150px" viewBox="0 0 150 150" version="1.1" xmlns="http://www.w3.org/2000/svg" xmlns:xlink="http://www.w3.org/1999/xlink">
    <!-- Generator: Sketch 55.2 (78181) - https://sketchapp.com -->
    <title>Metal</title>
    <desc>Created with Sketch.</desc>
    <g id="Metal" stroke="none" stroke-width="1" fill="none" fill-rule="evenodd">
        <path d="M144.4106,75.9707 C144.4106,114.0937 113.5046,144.9997 75.3816,144.9997 C37.2566,144.9997 6.3516,114.0937 6.3516,75.9707 C6.3516,37.8457 37.2566,6.9417 75.3816,6.9417 C113.5046,6.9417 144.4106,37.8457 144.4106,75.9707" id="Fill-155" fill="#8A776E"></path>
        <path d="M126.3335,62.1895 C124.5885,65.8535 123.1045,69.0415 121.8865,71.7405 C120.5785,74.4455 119.5325,76.7105 118.7485,78.5415 C115.8675,78.6285 113.3405,78.6755 111.1585,78.6755 L105.7945,78.6755 C107.7135,74.9235 109.3715,71.6095 110.7665,68.7305 C112.2495,65.8535 113.4705,63.4555 114.4305,61.5355 C113.4705,59.7935 112.6865,58.2655 112.0745,56.9595 C111.3775,55.5665 110.8105,54.4295 110.3755,53.5565 C110.2855,53.4705 110.2015,53.3825 110.1115,53.2965 C110.0265,53.2095 109.9805,53.1235 109.9805,53.0355 C109.0225,51.2895 108.1945,49.7205 107.4955,48.3245 C106.7995,47.0155 106.2305,45.9235 105.7945,45.0545 C101.8705,44.9705 98.4265,44.9195 95.4615,44.9195 C92.4105,44.8375 89.9225,44.7935 88.0045,44.7935 C89.3995,42.0005 90.6655,39.6055 91.8005,37.5955 C92.8445,35.5055 93.7625,33.8025 94.5465,32.4965 C98.2085,32.7555 101.4345,32.9745 104.2275,33.1505 C107.0165,33.2385 109.3715,33.3695 111.2895,33.5445 C112.9465,36.5955 114.3845,39.2985 115.6075,41.6545 C116.8285,44.0075 117.8735,45.9705 118.7485,47.5395 C118.7485,47.6265 118.7915,47.7145 118.8775,47.8005 C118.8775,47.8885 118.9225,47.9785 119.0085,48.0645 C120.6645,51.2035 122.1045,53.9515 123.3255,56.3025 C124.5465,58.6605 125.5495,60.6215 126.3335,62.1895 M93.1055,101.8285 C94.5905,104.4435 95.8545,106.7985 96.9005,108.8905 C97.9465,110.9005 98.8205,112.5995 99.5185,113.9925 C97.5125,117.3945 95.7675,120.4025 94.2835,123.0215 C92.8015,125.5485 91.5375,127.6855 90.4895,129.4315 L81.8555,129.4315 L75.7075,129.4315 L75.3145,129.4315 L75.1855,129.4315 L66.4205,129.4315 L60.2725,129.4315 C58.2645,126.0275 56.5215,123.0215 55.0395,120.4025 C53.4715,117.8735 52.2055,115.7405 51.2465,113.9925 C52.6425,111.2035 53.8615,108.8065 54.9095,106.7985 C55.9555,104.7935 56.8715,103.1325 57.6565,101.8285 C59.5745,105.4925 61.3185,108.7185 62.8885,111.5055 C64.3715,114.2985 65.6355,116.6115 66.6825,118.4395 L71.5205,118.4395 L75.1855,118.4395 L75.4465,118.4395 L75.7075,118.4395 L80.5495,118.4395 L84.0805,118.4395 C86.0865,114.7795 87.8735,111.5525 89.4435,108.7615 C90.9255,105.9685 92.1465,103.6605 93.1055,101.8285 M99.2545,58.7915 L50.7235,58.7915 C56.1315,68.6445 64.2385,83.4315 75.0545,103.1325 C80.4615,93.2835 88.5275,78.4985 99.2545,58.7915 M40.5185,53.5565 C39.5605,55.3005 38.7315,56.8735 38.0335,58.2655 C37.3365,59.5745 36.7695,60.6665 36.3335,61.5355 C38.2505,65.3755 39.9085,68.7305 41.3045,71.6095 C42.7875,74.4005 44.0075,76.7555 44.9675,78.6755 C42.0885,78.6755 39.6035,78.6285 37.5125,78.5415 L32.1475,78.5415 C30.4015,74.8785 28.8765,71.6975 27.5695,68.9945 C26.3475,66.2015 25.3005,63.9375 24.4295,62.1895 C26.0855,59.0525 27.5245,56.3025 28.7465,53.9515 C29.9675,51.5955 31.0135,49.6305 31.8855,48.0645 C31.9725,47.9785 32.0155,47.8885 32.0155,47.8005 L32.1475,47.5395 C33.8045,44.4005 35.2435,41.6545 36.4625,39.2985 C37.6855,36.9435 38.6885,35.0295 39.4725,33.5445 C43.2225,33.2795 46.4935,33.0645 49.2845,32.8885 C52.0735,32.7145 54.3855,32.5845 56.2165,32.4965 C57.6995,35.1995 59.0085,37.5955 60.1415,39.6915 C61.1875,41.6975 62.0595,43.3985 62.7575,44.7935 C58.8325,44.7935 55.3875,44.8375 52.4225,44.9195 C49.4565,44.9195 47.0165,44.9705 45.0995,45.0545 C44.1395,46.8005 43.3105,48.3245 42.6145,49.6305 C41.9135,51.0275 41.3045,52.1645 40.7815,53.0355 L40.6515,53.2965 C40.5625,53.3825 40.5185,53.4705 40.5185,53.5565" id="Fill-160" fill="#000000"></path>
    </g>
</svg>