<?xml version="1.0" encoding="UTF-8"?>
<svg width="150px" height="150px" viewBox="0 0 150 150" version="1.1" xmlns="http://www.w3.org/2000/svg" xmlns:xlink="http://www.w3.org/1999/xlink">
    <!-- Generator: Sketch 55.2 (78181) - https://sketchapp.com -->
    <title>Psychic</title>
    <desc>Created with Sketch.</desc>
    <g id="Psychic" stroke="none" stroke-width="1" fill="none" fill-rule="evenodd">
        <path d="M144.645,75.7383 C144.645,113.8613 113.739,144.7673 75.616,144.7673 C37.491,144.7673 6.586,113.8613 6.586,75.7383 C6.586,37.6133 37.491,6.7093 75.616,6.7093 C113.739,6.7093 144.645,37.6133 144.645,75.7383" id="Fill-47" fill="#A65E9A"></path>
        <path d="M63.5415,76.7715 C63.1745,76.7715 62.8525,76.7245 62.5765,76.6325 C62.3015,76.5425 61.9755,76.4515 61.6095,76.3595 C62.0695,77.8285 62.7135,79.2095 63.5415,80.4965 C64.3715,81.7875 65.4265,82.9335 66.7155,83.9475 C68.0045,84.9595 69.3835,85.7405 70.8545,86.2925 C72.3245,86.7535 73.8905,86.9805 75.5455,86.9805 C77.5675,86.9805 79.4545,86.6605 81.2035,86.0155 C82.9495,85.2795 84.5135,84.2205 85.8935,82.8435 C87.2735,81.4625 88.2865,79.9005 88.9305,78.1505 C89.6655,76.4065 90.0345,74.5175 90.0345,72.4945 C90.0345,70.5625 89.6655,68.7245 88.9305,66.9765 C88.2865,65.3205 87.2735,63.7555 85.8935,62.2875 C84.5135,60.9065 82.9495,59.8495 81.2035,59.1115 C79.4545,58.3755 77.5675,58.0075 75.5455,58.0075 C75.2705,58.0075 74.9925,58.0565 74.7195,58.1445 L74.0285,58.1445 C73.7515,58.2385 73.4755,58.3325 73.2005,58.4215 C73.0145,58.4215 72.7855,58.4705 72.5125,58.5585 C73.0625,59.0215 73.5645,59.5255 74.0285,60.0765 C74.3945,60.6265 74.7645,61.2735 75.1325,62.0075 C75.4985,62.6525 75.7295,63.3435 75.8225,64.0785 C76.0065,64.8165 76.0985,65.5975 76.0985,66.4215 C76.0985,67.8945 75.8675,69.2755 75.4085,70.5625 C74.8565,71.7575 74.0285,72.8615 72.9245,73.8735 C71.9085,74.9785 70.8075,75.8045 69.6115,76.3595 C68.3225,76.8205 66.9435,77.0465 65.4725,77.0465 L64.5085,77.0465 C64.1395,76.9555 63.8175,76.8635 63.5415,76.7715 M117.7655,77.3245 C115.6465,71.8025 113.1655,66.8395 110.3145,62.4215 C107.3715,57.9165 104.0595,53.9605 100.3815,50.5565 C99.8275,50.0955 99.2775,49.6385 98.7255,49.1755 C98.1735,48.7165 97.5745,48.2595 96.9315,47.7965 C96.7455,47.7055 96.6075,47.5705 96.5175,47.3825 C96.3305,47.2925 96.1495,47.1995 95.9655,47.1095 C95.5025,46.8305 95.0915,46.5565 94.7255,46.2815 C94.2635,46.0015 93.8485,45.7265 93.4825,45.4515 C93.2975,45.3595 93.1135,45.2675 92.9295,45.1755 C92.7445,44.9925 92.5185,44.8535 92.2405,44.7635 C91.8735,44.5785 91.4595,44.3475 90.9985,44.0725 C90.5375,43.8885 90.0785,43.7055 89.6175,43.5215 C89.4325,43.4315 89.2945,43.3355 89.2035,43.2445 C89.0205,43.1565 88.8815,43.1035 88.7915,43.1035 C88.6995,43.0155 88.6045,42.9685 88.5155,42.9685 C88.4245,42.8785 88.3305,42.8285 88.2395,42.8285 C90.0785,43.6585 91.8245,44.6235 93.4825,45.7265 C95.2285,46.9215 96.8845,48.3045 98.4495,49.8675 C101.5745,52.9945 103.9205,56.4455 105.4845,60.2145 C107.0505,63.9885 107.8305,68.0785 107.8305,72.4945 C107.8305,77.0005 107.0505,81.1405 105.4845,84.9125 C103.9205,88.7775 101.5745,92.2715 98.4495,95.3985 C95.2285,98.5235 91.7355,100.8715 87.9635,102.4335 C84.1905,104.0015 80.0515,104.7795 75.5455,104.7795 C71.1315,104.7795 67.0365,104.0015 63.2665,102.4335 C59.4925,100.8715 56.0005,98.5235 52.7795,95.3985 C49.6525,92.2715 47.3075,88.7775 45.7425,84.9125 C44.1775,81.1405 43.3985,77.0005 43.3985,72.4945 C43.3985,68.0785 44.1775,63.9885 45.7425,60.2145 C47.3075,56.4455 49.6525,52.9945 52.7795,49.8675 C54.3445,48.3045 55.9525,46.9705 57.6095,45.8655 C59.3555,44.6715 61.1055,43.7055 62.8525,42.9685 L62.7135,42.9685 C62.6235,42.9685 62.5285,43.0155 62.4385,43.1035 C62.3465,43.1035 62.2075,43.1565 62.0235,43.2445 C61.9325,43.3355 61.7945,43.4315 61.6095,43.5215 C61.1485,43.7055 60.6905,43.8885 60.2305,44.0725 C59.7685,44.3475 59.3555,44.5785 58.9895,44.7635 C58.7135,44.8535 58.4845,44.9925 58.2995,45.1755 C58.1135,45.2675 57.9325,45.3595 57.7475,45.4515 C57.3795,45.7265 56.9655,46.0015 56.5045,46.2815 C56.1375,46.5565 55.7235,46.8305 55.2645,47.1095 C55.0775,47.1995 54.9395,47.2925 54.8505,47.3825 C54.6645,47.5705 54.4825,47.7055 54.2985,47.7965 C53.7465,48.2595 53.1935,48.7165 52.6415,49.1755 C51.9975,49.6385 51.4455,50.0955 50.9865,50.5565 C47.2135,53.9605 43.8575,57.9165 40.9145,62.4215 C38.0625,66.8395 35.5805,71.8025 33.4655,77.3245 C35.5805,82.2895 38.0625,86.8435 40.9145,90.9825 C43.8575,95.0335 47.2135,98.6195 50.9865,101.7445 C54.6645,104.8735 58.5745,107.2165 62.7135,108.7815 C66.7625,110.3495 71.0395,111.1265 75.5455,111.1265 C80.1455,111.1265 84.4655,110.3495 88.5155,108.7815 C92.6545,107.2165 96.6075,104.8735 100.3815,101.7445 C104.0595,98.6195 107.3715,95.0335 110.3145,90.9825 C113.1655,86.8435 115.6465,82.2895 117.7655,77.3245 M129.3555,77.7385 C126.6865,84.4515 123.5135,90.5235 119.8365,95.9495 C116.0635,101.3785 111.8325,106.1605 107.1415,110.2965 C102.3595,114.4395 97.3465,117.5665 92.1025,119.6815 C86.8595,121.8005 81.3875,122.8555 75.6845,122.8555 L75.5455,122.8555 C69.8405,122.8555 64.3715,121.8005 59.1285,119.6815 C53.8845,117.5665 48.8695,114.4395 44.0885,110.2965 C39.3965,106.1605 35.1665,101.3785 31.3955,95.9495 C27.7145,90.5235 24.5425,84.4515 21.8755,77.7385 C24.5425,70.3785 27.7145,63.7555 31.3955,57.8695 C35.1665,51.9825 39.3965,46.7405 44.0885,42.1405 C48.8695,37.6365 53.8845,34.2755 59.1285,32.0705 C64.3715,29.7715 69.8405,28.6195 75.5455,28.6195 L75.6845,28.6195 C81.3875,28.6195 86.8595,29.7715 92.1025,32.0705 C97.3465,34.2755 102.3595,37.6365 107.1415,42.1405 C111.8325,46.7405 116.0635,51.9825 119.8365,57.8695 C123.5135,63.7555 126.6865,70.3785 129.3555,77.7385" id="Fill-52" fill="#000000"></path>
    </g>
</svg>