<?xml version="1.0" encoding="UTF-8"?>
<svg width="150px" height="150px" viewBox="0 0 150 150" version="1.1" xmlns="http://www.w3.org/2000/svg" xmlns:xlink="http://www.w3.org/1999/xlink">
    <!-- Generator: Sketch 55.2 (78181) - https://sketchapp.com -->
    <title>Water</title>
    <desc>Created with Sketch.</desc>
    <g id="Water" stroke="none" stroke-width="1" fill="none" fill-rule="evenodd">
        <path d="M144.293,75.7383 C144.293,113.8613 113.388,144.7673 75.264,144.7673 C37.14,144.7673 6.234,113.8613 6.234,75.7383 C6.234,37.6133 37.14,6.7093 75.264,6.7093 C113.388,6.7093 144.293,37.6133 144.293,75.7383" id="Fill-25" fill="#5BC7E5"></path>
        <path d="M73.6797,123.7793 C73.3657,124.5643 72.7317,125.1523 71.7907,125.5493 C70.8457,125.9413 69.5467,126.1423 67.8927,126.1423 C66.3957,126.1423 64.7807,125.9413 63.0487,125.5493 C61.3147,125.1523 59.5047,124.5643 57.6147,123.7793 C55.7237,123.0683 54.0707,122.2423 52.6537,121.2993 C51.1587,120.3493 49.8947,119.3303 48.8727,118.2243 C47.6917,117.2053 46.9037,116.2163 46.5107,115.2733 C46.1167,114.3263 46.0777,113.4613 46.3937,112.6753 C46.7857,111.9633 47.4557,111.4163 48.3997,111.0193 C49.3467,110.6233 50.6037,110.4293 52.1817,110.4293 C53.7557,110.4293 55.4097,110.6233 57.1407,111.0193 C58.8727,111.4163 60.6467,111.9633 62.4577,112.6753 C64.3477,113.4613 66.0407,114.3263 67.5367,115.2733 C69.0327,116.2163 70.3317,117.2053 71.4347,118.2243 C72.5397,119.3303 73.2467,120.3493 73.5627,121.2993 C73.9557,122.2423 73.9927,123.0683 73.6797,123.7793 M99.5497,39.3163 C93.8007,39.8693 88.0127,40.5783 82.1847,41.4453 C76.3557,42.3123 70.7667,43.7263 65.4117,45.6953 C59.9767,47.6643 54.7787,50.2243 49.8197,53.3733 C48.6387,54.0823 47.4957,54.8323 46.3937,55.6193 C45.2877,56.4063 44.1887,57.2323 43.0857,58.0993 C42.0617,58.9653 41.0777,59.8713 40.1307,60.8143 C39.1087,61.6853 38.1237,62.6313 37.1797,63.6503 C36.3117,64.6753 35.4837,65.7403 34.6987,66.8403 C33.8307,67.8653 33.0447,68.9653 32.3367,70.1463 C31.5477,71.2543 30.8397,72.3903 30.2087,73.5743 C29.6587,74.7543 29.1037,75.9353 28.5567,77.1173 C27.4517,79.5583 26.5877,82.0393 25.9577,84.5583 C25.3267,87.0803 24.9327,89.7203 24.7757,92.4763 L24.7757,93.4183 L24.7757,94.3653 C24.7757,96.6503 25.0517,98.9313 25.6027,101.2153 C26.1537,103.4203 26.9797,105.5863 28.0837,107.7113 C29.5777,110.4683 31.3497,112.9493 33.3977,115.1543 C35.4457,117.3593 37.8087,119.2893 40.4857,120.9413 C43.0857,122.5953 45.8417,124.0133 48.7567,125.1953 C51.5907,126.3753 54.5457,127.3223 57.6147,128.0313 C59.3457,128.4253 61.0807,128.7383 62.8097,128.9743 C64.5437,129.2113 66.3147,129.3673 68.1267,129.4473 C68.6777,129.5213 69.2687,129.5663 69.9007,129.5663 L71.6737,129.5663 L75.0967,129.5663 C76.1197,129.4863 77.1827,129.3673 78.2877,129.2113 C79.5457,129.0503 80.7657,128.8943 81.9477,128.7383 C83.1297,128.5023 84.3497,128.2633 85.6107,128.0313 C86.7907,127.7173 87.9307,127.3613 89.0357,126.9653 C90.2187,126.4983 91.3567,125.9803 92.4617,125.4313 C93.5637,124.8793 94.5867,124.2073 95.5337,123.4243 C96.5547,122.7133 97.4987,121.8863 98.3697,120.9413 C99.3127,120.0743 100.1407,119.1293 100.8497,118.1093 C101.5577,117.0863 102.1857,116.0213 102.7397,114.9203 C103.2867,113.7363 103.7607,112.5543 104.1567,111.3753 C104.5497,110.1133 104.8227,108.8513 104.9827,107.5933 C105.1407,106.2563 105.1787,104.9553 105.1017,103.6973 C104.9417,102.4373 104.7047,101.1753 104.3927,99.9163 C104.0777,98.7363 103.6417,97.5933 103.0937,96.4923 C102.6207,95.3883 101.9897,94.3243 101.2037,93.3003 C100.4947,92.2773 99.7457,91.2933 98.9577,90.3493 C98.2497,89.3263 97.4627,88.3403 96.5967,87.3943 C95.7287,86.4493 94.8647,85.5043 93.9977,84.5583 C93.0517,83.6153 92.1467,82.6293 91.2817,81.6073 C90.4127,80.5863 89.5867,79.5583 88.8017,78.5373 C88.0927,77.4333 87.4217,76.2893 86.7907,75.1113 C86.2417,73.9273 85.7277,72.7463 85.2547,71.5663 C84.7837,70.3083 84.4277,69.0063 84.1927,67.6683 C83.8777,66.3303 83.7197,64.9943 83.7197,63.6503 C83.7197,62.3123 83.8387,61.0133 84.0757,59.7543 C84.6257,56.7593 85.7277,54.1623 87.3847,51.9533 C89.0357,49.7543 91.2407,47.9003 93.9977,46.4063 C96.6727,44.9883 99.3527,43.7263 102.0297,42.6233 C104.7047,41.5213 107.3857,40.5783 110.0637,39.7893 C110.6127,39.6333 111.1657,39.4763 111.7157,39.3163 C112.2657,39.1583 112.8567,39.0023 113.4877,38.8433 C114.0377,38.6853 114.5897,38.5333 115.1427,38.3733 C115.7717,38.2133 116.3637,38.0583 116.9147,37.9003 C111.0847,38.2133 105.2947,38.6853 99.5497,39.3163" id="Fill-30" fill="#000000"></path>
    </g>
</svg>